<?xml version="1.0" encoding="UTF-8"?>
<svg xmlns="http://www.w3.org/2000/svg" version="1.1" viewBox="0 0 1008 220.3">
  <defs>
    <style>
      .cls-1 {
        fill: #fff;
      }

      .cls-1, .cls-2, .cls-3, .cls-4, .cls-5 {
        stroke-miterlimit: 10;
      }

      .cls-1, .cls-3 {
        stroke: #ff000d;
      }

      .cls-2 {
        stroke: red;
      }

      .cls-3, .cls-4, .cls-5 {
        fill: none;
      }

      .cls-6 {
        fill: #15aa00;
      }

      .cls-6, .cls-7, .cls-8 {
        display: none;
      }

      .cls-4 {
        stroke: #003dff;
      }

      .cls-7 {
        stroke: #fff;
        stroke-miterlimit: 113.4;
      }

      .cls-5 {
        stroke: #00f3ff;
      }
    </style>
  </defs>
  <!-- Generator: Adobe Illustrator 28.7.6, SVG Export Plug-In . SVG Version: 1.2.0 Build 188)  -->
  <g>
    <g id="Layer_2" class="cls-8">
      <rect class="cls-7" x="2.3" y="3.6" width="1002.9" height="212.6"/>
    </g>
    <g id="Layer_3" class="cls-8">
      <rect class="cls-6" x="14" y="15.6" width="978.3" height="187.7"/>
    </g>
    <g id="Layer_1_copy">
      <g>
        <path class="cls-1" d="M322.7,56.4c1.5.2,3,.2,4.3.5,6.5,1.5,13.3,1.6,19.7,3.7,3.4,1.1,7.4.2,11.4.2.8-6.7,1.6-13.5,2.4-20.5h-35.5c-.8,5.4-1.5,10.7-2.3,16.1Z"/>
        <path class="cls-1" d="M375.2,127.1c-3.1-.1-6.1,0-9.4,0-.8,7.2-1.5,14.4-2.3,21.6h16.8c0-5.5,0-10.9,0-16.2,0-3.6-1.5-5.2-5.1-5.4Z"/>
        <path class="cls-1" d="M322.2,60.7c-1,7.1-2.1,14.1-3.1,21h-14.4c1-7.1,1.9-13.9,2.8-20.8-6.3-.3-12.2-.6-18.1-.9-1.9-.1-3.8-.3-5.7-.7-.8-.1-1.5-.7-2.3-1.1,0-.3.1-.5.2-.8,4.6-1.3,9.2-.1,14.1,0,.9-5.5,1.7-11.2,2.6-16.9h-35.5c-4.6,24.4-9.1,48.7-13.7,73.2,12.4.6,24.6,1.2,37.1,1.9,0,0,.1-.6.2-1.2,1.2-7.1,2.3-14.3,3.5-21.4.1-.7.8-1.8,1.2-1.8,4.5-.1,8.9,0,13.7,0-1.1,7.9-2.1,15.2-3.2,22.8,1.4,0,34.6,0,36.5.8,1.1,1.1,1.8,3,1.7,4.5-.2,3.5-1,6.9-1.5,10.4-.8,5.5-1.5,11-2.3,16.6-.3,2.3.7,3.3,2.8,3.2,3,0,5.9-.2,9-.3,3.3-28.7,6.6-56.9,9.9-85.3-12.1-.5-23.6-3.7-35.7-2.9Z"/>
        <path class="cls-1" d="M333.3,116.8c-5.9.2-11.8.7-17.7,1.1-1.3,0-1.8.7-1.9,2.1-.7,5.7-1.6,11.4-2.4,17.1-.5,3.8-1,7.7-1.6,11.9h23c.6-4.4,1.2-8.2,1.7-12.1.8-5.2,1.6-10.4,2.2-15.6.4-2.9-.8-4.6-3.3-4.5Z"/>
        <path class="cls-1" d="M371.8,70c6.9.5,13.6-.6,20.2.7-.4.7-.8,1.2-1.3,1.3-6.3.6-12.7,1.2-19.4,1.8-1.7,16.4-3.5,33.3-5.4,50.8,4.3,0,8,.1,11.7,0,3.5-.1,5.6,1.5,5.6,5,0,3.9-.3,7.8-.3,11.7,0,2.4.2,4.8.4,7.5h44.4c0-3.8,0-7.1,0-10.3,0-4.4,2.1-6.4,6.5-6.4,2.2,0,4.3,0,6.5,0,3.2-.1,4.7-1.8,5-5.4h-41.9c.6-8.2,1.2-16.1,1.8-24.2h52.1c.3-7,.6-13.7.9-20.5h-23.4c-1.1,5.5,1.1,11.5-2.6,16.5-1.3-5.4-.5-11-.9-16.8h-24c0-1.2,0-2.1,0-3,.4-5.3.7-10.6,1.1-16,.3-3.9.3-3.9,4.2-3.9,14.7,0,29.3,0,44,0,.9,0,1.7-.1,2.7-.2.3-6.3.5-12.2.8-18.2h-85.5c-1.1,10-2.1,19.8-3.1,29.6Z"/>
        <path class="cls-1" d="M513.5,126.8q-3.9,0-3.8-3.9c.3-12.6.5-25.2.7-37.7,0-.8-.1-2.1-.6-2.4-1.6-1-3.3-2-5.1-2.4-5-1.1-10-1.7-15-2.8-3-.6-6-1.6-9-2.5,0-.4.2-.8.3-1.3,9.8,1.7,19.6,3.3,29.9,5.1,0-5.8,0-11.7,0-17.5,0-2.3.8-2.8,2.9-2.8,12.9,0,25.8,0,38.7,0,2.7,0,5.5,0,8,0,0-5.5-.1-10.8,0-16,0-2.3-.7-2.9-3-2.9-26.9.1-53.8.2-80.7.2-.6,0-1.3,0-2.1.2-.6,18.6-1.2,37-1.9,55.4,3,0,5.8-1.1,8.3.4,0,.4,0,.8.1,1.1-2.7.5-5.5,1.1-8.5,1.7-.6,16.3-1.1,32.9-1.7,50.2,4.8,0,9.4,0,13.9,0,1.8,0,3.8-.2,4.5-2.6.1-.5,1-.8,1.5-1.2,2.8-2,6.1-1.6,9.2-1.5,3.4,0,6.4,1.1,7.4,4.9h35.8c.8-5.7-.8-14.1.3-16.5.4,0,.7,0,1.1,0,.8,5.4,1.6,10.9,2.5,16.7h15.7v-22c-1.5,0-2.5,0-3.5,0-15.3,0-30.7,0-46,0Z"/>
        <path class="cls-1" d="M448.7,128.2c-.2,4.8-2.2,6.7-7,6.7-2,0-4,0-6,0-3.3.2-5,2-5,5.3,0,2.7,0,5.5,0,8.6l24.9-.3c.3-7.2.6-14.4.9-21.6h-7.7c0,.6,0,1-.1,1.3Z"/>
        <path class="cls-1" d="M111.4,40.7c-.4-.2-.5-.3-.6-.3-10.9,0-21.8,0-32.7,0-.6,0-1.6,1-1.8,1.7-1.5,4.4-2.9,8.8-4.4,13.3-.2.5-.1,1-.2,1.6h34.9c1.6-5.3,3.2-10.9,4.8-16.4Z"/>
        <path class="cls-1" d="M165.4,78.1c2.8,0,4.7-1.8,5.2-4.5.5-2.5.8-5.1,1-7.7.4-3.8-.9-5.3-4.7-5.3-6.6,0-13.2.1-19.9.3-.6,0-1.6.4-1.7.9-1.5,5.3-3,10.7-4.5,16.4,8.4,0,16.5,0,24.5,0Z"/>
        <path class="cls-1" d="M64.1,139.4c-5.1,0-6.5-1.9-4.9-6.7,1.8-5.4,3.6-10.9,5.3-16.4.8-2.7-.1-4.4-2.5-4.5-2.6-.2-5.3,0-8.2,0-3.9,12-7.8,24.3-12,37.4l36.2-.4c.6,0,1.6-.6,1.8-1.2.9-2.6,1.6-5.2,2.5-8.3-6.3,0-12.2,0-18.1,0Z"/>
        <path class="cls-1" d="M228.5,62.3c0-.3,0-.7,0-1h15.9c1.4-7.2,2.7-13.8,4-20.6-1.1,0-1.9,0-2.7,0-9.8,0-19.7.1-29.5,0-2.6,0-3.5.7-4,3.2-6.4,29-12.9,58-19.3,87-1.3,6-2.6,12-4,18.3h14.9c.4-5.9,1.1-11.5,4.5-16.3.4,1.3.4,2.5.2,3.6-.3,2.1-.9,4.2-1.2,6.4-.2,1.6,0,3.3.2,4.9,0,.5,1,1.3,1.6,1.3,5.9,0,11.8,0,17.9,0,5.6-28.5,11.2-56.9,16.8-85.4-5.3-.3-10.6.6-15.4-1.5Z"/>
        <path class="cls-1" d="M70.1,125.9c-4.1,0-6.6,2.1-7.6,6.2-.6,2.6.4,4.2,3,4.2,5.4.1,10.8,0,16.2,0,.6,0,1.5-.7,1.7-1.3,1-2.8,1.7-5.7,2.8-9.2-5.7,0-10.9,0-16.1,0Z"/>
        <path class="cls-1" d="M279.8,118.1c-10.3-.7-20.6-1.1-31.2-1.6-2,10.6-4,21.3-6.1,32.4h14.1c1.5-3.9,2.8-7.2,4.1-10.6.4.1.8.2,1.3.4,0,.8,0,1.5-.2,2.3-.3,1.8-.6,3.6-.9,5.4-.3,1.6.2,2.6,2,2.6,5.2,0,10.5,0,15.7,0,2,0,2.6-1,2.9-2.8,1.1-7.2,2.3-14.5,3.5-21.7.9-5.5.6-6-5.1-6.4Z"/>
        <path class="cls-1" d="M111.8,82.2c2.1-7.4,4.1-14.9,6.2-22.2-8.1-.2-39.3,0-47.6,0-5.1,15.9-10.4,32.3-15.9,49.3,3.6,0,6.8.2,10,0,3.1-.2,4.7,1.5,3.9,4.5-.5,1.7-1.1,3.3-1.6,5-.6,2.3.5,4,2.8,4,5.3,0,10.6-.4,15.9-.5,1.5,0,1.9-.8,2.3-2,1.5-5.1,3.1-10.2,4.5-15.3.6-2.2,1.7-2.4,3.6-2.2,3.4.2,6.8,0,10.1,0,.5,0,.9,0,1.6.1-2.1,7.5-4.1,14.7-6.1,22.3,7.4,0,14.6-.1,21.7,0,2.5,0,3.2-.9,3.7-3.1,1.3-5.3,2.8-10.6,4.3-15.9,1.1-3.9.8-3.3,5.4-3.5,1.5.2,7.8.2,10.1,0-3.9,15.5-7.7,31.7-11.5,47,2.6.4,4.9,0,7.2,0,9.6-.2,19.3.2,28.9,0,1.9,0,2.3-1.6,2.7-3.2,4.3-18.4,8.6-36.8,12.9-55.2.7-3.2,1.4-6.4,2.2-9.7l-77.3.6Z"/>
        <path class="cls-1" d="M773.3,127.6c-9.9-1-19.9-2.2-29.8-3.3-2-.2-4-.4-6.3-.6,1.2,8.5,2.4,16.7,3.6,25h38.5c-1.1-6.4-2.2-12.3-3.1-18.3-.3-1.9-1.1-2.6-3-2.8Z"/>
        <path class="cls-1" d="M169.7,57.7c3.9,0,5.7,2.4,5.2,6.2-.5,3.2-1,6.4-1.2,9.7-.2,2.8,1.2,4.5,4,4.6,4,.1,8,0,12.3,0,2.9-12.7,5.8-25.1,8.8-37.6h-35.5c-1.5,5.8-3,11.5-4.4,17.2,3.8,0,7.3,0,10.9,0Z"/>
        <path class="cls-1" d="M869.2,81c-20.2,0-17.7,0-20.2,0,.9,5.3,1.8,10.1,2.5,14.9.3,2,0,4.5,0,6.6,25-.2.8,0,24.7,0-1.6-6.7-3.2-13.8-4.9-20.3-.1-.5-1.3-1.1-2.1-1.1Z"/>
        <path class="cls-1" d="M845.9,81c-1,0-2,0-2.9,0-7.2,0-14.3,0-21.5,0-1.6,0-2.4-.5-2.7-2.1-.8-4.3-1.8-8.6-2.7-13-.5-2.3-.9-4.7-1.5-7.4l19.6-.2c-1.3-5.4-3-7.6-6.5-8-3.9-.5-6.2-2.6-7.2-6.3-.4-1.4-.7-2.7-1-4h-44.6c6.7,36.4,13.3,72.4,19.9,108.8l38.5-.2c-3.3-15.6-6.4-30.9-9.6-46.2h24.1c.4-2.4,1.1-4.4.9-6.2-.7-5-1.9-10-3-15.3Z"/>
        <path class="cls-1" d="M958.7,116.3c-5.6-19.2-11.1-38.5-16.7-57.7,1.4-.3,2.2.2,3,0,0-.6,0-1.5,0-2-1.4-5.6-2.8-11.1-4.2-16.8h-65.4c1.6,6.1,3,11.9,4.6,17.8.1.5,1.1,1,1.7,1,20.6-.1,0,.1,20.6,0v-5.2c.2,0,.4,0,.6-.1,1.1,2.8,2.4,5.6,3.3,8.6,4.7,16.8,9.3,33.7,13.8,50.6.4,1.5,1,2.1,2.6,2.4,11,1.4,24.1.9,36.1,1.5Z"/>
        <path class="cls-1" d="M922.2,120.4c2.5,9.2,5,18.1,7.5,27.1.1.5.8,1.1,1.3,1.1,11.2.2,22.4.4,33.6.5,1.3,0,2.5-.4,4-.7-3-9.9-5.7-19-8.7-28.9l-37.7.9Z"/>
        <path class="cls-1" d="M590.5,69.6c-1-9.8-2-19.6-3-29.5h-12.8c.4,10.2.8,20.2,1.2,30.3,12.1,0,12.3.2,14.6-.8Z"/>
        <path class="cls-3" d="M974.5,153.9c-11.4,11.1-22.6,22.4-33.9,33.6-.9.9-2.5,1.6-3.8,1.7-13.6.1-27.2,0-40.7.1-1.9,0-2.5-.6-3-2.4-5.5-22.8-11.2-45.6-16.8-68.4-.1-.6-.3-1.1-.6-2-.7.9-1.3,1.6-1.8,2.4-5.9,8.2-11.8,16.3-17.7,24.5-.9,1.3-1.9,1.8-3.5,1.8-4.1-.1-8.1,0-12.1,0-.1.4-.2.6-.2.7,1.6,3.9.1,7-2.2,10.2-7.5,10.3-14.8,20.8-22,31.3-1,1.5-2.1,2-3.9,2-13,0-26,0-39,0q-4.3,0-5.5-4c-.1,0-.4,0-.4.2-1.2,3.5-3.8,3.9-7.2,3.9-12.9-.2-25.8,0-38.7,0h-2.8c-.3-1.6-.5-3-.8-4.4-.2,0-.4.1-.4.2-.8,3.7-3.3,4.3-6.8,4.3-13.1-.2-26.2,0-39.2,0h-2.8c-.2-1.7-.5-3.1-.7-4.6-.2.1-.4.1-.4.2q-1.9,4.4-6.6,4.4h-42.4c-.2-1.8-.7-1.8-.9-3.7-.6,1.9-.5,2.7-1.6,3.4,0,0-3.7.3-5.6.3-13,0-26,0-39,0h-3c-.1-2.2-.2-4.2-.3-6.2-.1,0-.3,0-.4,0-.2,2-.4,4-.6,6h-98c-.3-2.1-.5-4-.8-6,0,0-.2,0-.2,0-.1,2-.3,3.9-.4,6.1h-3.1c-29.7,0-59.3,0-89,0s-5.8.4-6.9-2.9c-.2,2.1-.6,1.2-.8,2.8-.9,0-1.7.1-2.5.1-14,0-28,0-42,0-1.8,0-2.6-.5-3.4-2.1-3.1-6.6-6.3-13.2-9.5-19.8-.3-.6-.7-1.3-1.3-2.4-1.2,8.5-2.4,16.3-3.6,24.3h-2.9c-12.7,0-25.3,0-38,0-3.3,0-6.6.4-7.6-3.9-.4.2-.6.3-.6.3q-1,3.6-4.9,3.6c-12.1,0-24.2,0-36.2,0-3.5,0-6.7.2-8.3-4.7-.5,2-.8,3.2-1.2,4.5-.8,0-1.6.1-2.4.1-13.6,0-27.2,0-40.7,0-1.7,0-2.8-.6-3.8-1.8-5.5-6.4-11.1-12.9-16.8-19.2-.8-.8-2.2-1.3-3.3-1.5-1.4-.3-2.8-.1-4.2,0-3.4.2-6.8.4-8.8-4.2-2.3,8.7-4.4,16.5-6.4,24.3-.5,1.8-1.2,2.5-3.2,2.5-13.2-.1-26.5,0-39.7-.1-1.2,0-2.6-.6-3.5-1.4-12.5-11.4-24.9-22.9-37.3-34.4-1.3-1.2-1.6-2.1-1-3.8,12.2-37.7,24.4-75.4,36.4-113.1.7-2.2,1.6-3.1,4.1-3,13.1.1,26.2,0,39.2,0,1.7,0,2.7.5,3.7,1.9,6.2,8.6,12.5,17.1,18.7,25.6.4.5.8,1,1.4,1.8.7-2.5,1.3-4.7,1.8-7,.3-1.4.9-1.8,2.4-1.8,8.2,0,0,0,8.2,0,1.7,0,2.5-.4,2.9-2.2,1.3-5.5,2.9-10.9,4.2-16.4.4-1.5,1-2,2.5-2,13.9,0,27.8-.1,41.7,0s3.6,2.3,4.5,3.7c0-4.2,3.7-3.7,6.8-3.7,12.3,0,24.7,0,37,0,2.8,0,4.7.5,5.4,3.3,0,.4.4.7.6,1,.2-.2.4-.3.5-.4q.7-4,4.8-4c13.3,0,26.5,0,39.7,0,2.4,0,3.4.8,4.1,2.9,1.6,4.5,3.4,9,5.3,13.5,1.4,3.1,3.1,6.1,4.9,9.6,1.3-8.8,2.5-17.2,3.8-25.9,1,0,30,0,43.5-.1,3,0,4.5.7,4.8,3.7,0,.4.2.8.7,1.2.2-1.5.4-2.9.6-4.7.9,0,1.7-.1,2.6-.1,30.8,0,61.7,0,92.5-.1,2.6,0,3.4.8,3.3,3.2,0,1,.2,2,.9,3v-6.1h98.9v6.4c.2,0,.4,0,.6,0,.2-2.1.5-4.2.7-6.5h98.2c.2,1.6.5,3.2.7,4.9.2-.2.4-.4.5-.6q1.4-4.5,6.3-4.5c29.5,0,59-.1,88.5-.1q3.8,0,4.5,3.6c0,.3.1.6.2.8.2,0,.4,0,.4-.1.9-4.3,4-4.4,7.7-4.4,28.8.1,57.7,0,86.5,0q4.4,0,5.6,4c.2,0,.4,0,.4-.1,1.3-3.4,3.8-4,7.2-4,29.5.1,59,0,88.5,0,2.1,0,3,.6,3.6,2.6,2.4,7.9,4.9,15.7,7.5,23.5.5,1.5.3,2.4-.7,3.6-5.4,6.4-10.8,12.9-16.2,19.4-1.1,1.3-1.4,2.5-.9,4.2,6.4,20.8,12.6,41.6,18.9,62.3.7,2.4.4,3.8-1.4,5.6Z"/>
        <path class="cls-1" d="M949.9,58.4h17.4c-2-6.2-3.8-12-5.7-17.8-.1-.4-.9-1-1.4-1-5.6,0-11.1,0-16.7,0,1.6,5.6,3,11.1,4.6,16.5.3.9,1,2.1,1.8,2.3Z"/>
        <path class="cls-1" d="M760.6,39.9h-85.8c4,36.4,8,72.5,12.1,109h19c.5-1.5.8-2.5,1.1-3.5.2,0,.5,0,.7,0,.5,1,1,2.1,1.6,3.5h16.1c-1.6-12.1-3.2-23.7-4.8-35.6,4.6,0,8.9,0,13.1,0,1.7,0,2.3.7,2.5,2.3.2,1.8.5,3.6.7,5.1,12.9,1.3,25.4,2.7,38.4,4-4.9-28.6-9.8-56.7-14.7-84.8ZM731.3,73.9c.3.7,1.2,1.2,1.8,1.8,0,0,.2,0,.2,0,1.9.2,4.4-.3,5.4.7,1.1,1.1.9,3.6,1.2,5.5.8,5.1,1.5,10.2,2.4,15.6-3.1,0-5.9,0-8.7,0-.5,0-1.1-.9-1.2-1.5-.4-1.8-.6-3.6-1-5.5h-12.9c.1,2.3.3,4.5.4,7-2.9,0-5.7,0-8.5,0-.5,0-1.2-.9-1.3-1.5-.9-6.6-1.7-13.2-2.6-20.2h7.5c-.2-1.8-.4-3.1-.6-4.8-4.3,0-8.4,0-12.6,0-2,0-2.8-.5-2.9-2.6-.3-3.8-.9-7.6-1.4-11.8,5.5,0,10.7,0,15.9,0,.5,0,1.2,1,1.3,1.7.6,3.5,1.1,7,1.6,10.8h12.7c-.5-4.2-.9-8.1-1.4-12.5,1.2,0,2.3,0,3.3,0,4.1,0,8.2,0,12.2,0,1.2,0,2.1.2,2.3,1.6.6,4.1,1.3,8.2,1.9,12.6h-15.5c.1,1.3,0,2.3.3,3.1Z"/>
        <path class="cls-1" d="M596.2,116.4c-4.7,0-6.1,1.5-5.9,6.2.3,4.7.6,9.3.9,14,0,.9-.1,1.9-.6,2.6-1.9,3.1-3.9,6.1-6.1,9.5,32.1,0,0,0,32.9,0-.7-10.8-1.4-21.5-2.1-32.3-6.5,0-12.8,0-19.2,0Z"/>
        <path class="cls-1" d="M656.2,92.7c-2.2,0-4-.1-3.9-2.8-4.5-.4-9.1.9-13.1-1.8,4.2-1.7,8.6-.7,13-1.2,0-1.3-.1-2.6-.3-3.8-.3-3.2-.3-3.2,3-3.2,3.1,0,6.2,0,9.5,0-1.4-13.6-2.7-26.7-4-39.8h-70.1c1.2,10.6,2.3,21,3.5,31.4.3,2.9,2.5,4.5,5.5,4.8,2.1.2,4.3.4,6.4,1.1,1,.3,1.8,1.5,2.7,2.2-.1.2-.3.4-.4.6-2.1-.3-4.1-.6-6.2-.8-2.1-.2-4.2.1-6.2-.4-1.5-.4-2.7-1.8-4.1-2.8-1-.7-2-2-3.1-2.1-3-.4-6-.5-9-.3-2.1,0-3.4,1-3.3,3.8.9,19.2,1.5,38.5,2.2,57.7.2,4.5.4,9,.6,13.5h3.8c.6-2,.6-4.1,1.7-5.5,2.8-3.4,3.7-7.2,3.5-11.4-.1-3.9-.6-7.8-.8-11.7-.3-4.5,1.8-6.6,6.4-6.5,7.1,0,14.3,0,21.6,0-.2-3.9-.4-7.3-.6-11,4.1,0,7.9,0,11.6,0,3.5,0,3.4,0,3.7,3.6.3,4.8.7,9.6,1.1,14.4,6.9,0,13.4,0,20,0,1.1,0,2.2.3,3.3.5,0,.4,0,.7,0,1.1-7.4,2.3-15.2.6-23,1.4.6,8.3,1.2,16.6,1.9,24.9,12.9,0,0,0,12.9,0,.3-1.3.6-2.3.9-3.4.2,0,.4,0,.7,0,.5,1.2,1,1.9,1.6,3.4h22.4c-1.9-19-3.8-37.2-5.7-55.9-3.3,0-6.4-.1-9.5,0ZM625.6,81.8c-1.7-.1-3.5,0-5.2,0-1.8,0-3.7.1-5.5,0-.7,0-1.7-1-1.8-1.6-.6-6.5-.9-12.9-1.4-19.4,0-1.3.3-2,1.8-2,3.7,0,7.3,0,11,0,.7,0,1.8,1,1.8,1.6.6,6.4,1,12.8,1.6,19.1.2,1.8-.5,2.4-2.2,2.3Z"/>
        <path class="cls-1" d="M829.8,47.4c2.7.2,4.6,2.2,5.6,4.8.7,1.6,1.1,3.3,1.8,4.9.3.6,1,1.4,1.6,1.4l26.7-.2c-1.5-6.2-3-12.3-4.6-18.5h-38.6c1,4.1,2.7,7.1,7.4,7.5Z"/>
      </g>
      <path class="cls-1" d="M231.3,185.7"/>
      <path class="cls-1" d="M257.4,41.1"/>
    </g>
    <g id="Layer_6">
      <path class="cls-4" d="M710.4,187.9c-5.2,0-10.8-.1-17.9-.1s-7.1,0-10.7,0c-3.6,0-7.1,0-10.7,0h-1.6l-.8-5.3-1.8.9c-.3.1-.8.3-1.1.9-.8,1.8-1.2,2.9-1.7,3.2-.5.3-1.7.3-3.6.3h-41.1l-1.4-5.3-1.9,1c-.2.7-.4,1.4-.5,2.1-.1.6-.3,1.6-.6,2-1.1,0-3.6.3-5,.3-6.8,0-13.5,0-20.3,0h-20.3s-.3-6.2-.3-6.2h-3s-.6,6-.6,6h-95.5l-.8-6h-2.8c0,.1-.4,6.1-.4,6.1h-90.8c-2.1,0-3.3,0-3.8-.4-.6-.4-1.7-2.9-2.6-5.1l-2.1,1.6-.4,3.9c-.4,0-.8,0-1.2,0h-19c-7.7,0-15.3,0-23,0-1.2,0-1.6-.2-2.1-1.3-2.3-5.1-4.8-10.2-7.2-15.1l-2.3-4.7c-.2-.4-.4-.8-.7-1.4-.2-.3-.4-.6-.6-1.1l-2-3.8-4,27.4h-22.3c-5.8,0-11.6,0-17.3,0,0,0-1.3,0-1.6,0-2.8,0-4.1-.4-4.7-2.9l-.4-1.8-1.7.9c-.1,0-.2.1-.3.1-.3.1-.8.4-1,1-.3,1.1-.6,2.2-.9,2.4-.2.2-1.4.2-2.6.2-3.3,0-6.7,0-10,0-3.3,0-6.7,0-10,0-6.4,0-11.6,0-16.3,0h-1.2c-2.8,0-4.6-.2-5.7-3.7l-1.5-4.6-2.2,8.2c-.4,0-.9,0-1.3,0h-18.3c-7.5,0-14.9,0-22.4,0-1.2,0-1.9-.3-2.7-1.3-4.9-5.7-10.7-12.5-16.8-19.2-.8-.9-2.2-1.6-4.1-2-.6-.1-1.3-.2-2.1-.2s-1.2,0-1.9,0h-.8c-.6,0-1.2,0-1.8,0-2.5,0-4.2-.6-5.5-3.5l-1.6-3.8s-2.3,8.6-2.9,10.9c-1.6,6-3.1,11.7-4.6,17.4-.3,1.2-.5,1.4-1.7,1.4-6.8,0-13.7,0-20.3,0-6.5,0-13,0-19.5,0-.8,0-1.9-.4-2.5-1-6.8-6.2-13.5-12.4-20.3-18.7-5.7-5.2-11.4-10.5-17.1-15.7-.9-.8-1-1.2-.6-2.3,13-40.1,24.9-77.1,36.4-113.1.5-1.7,1-2.1,2.7-2.1,5.1,0,10.4,0,16.2,0s15.7,0,23.1,0c1.3,0,1.9.3,2.6,1.3,4.8,6.6,9.7,13.3,14.5,19.8l4.3,5.8c.3.4.5.7.9,1.1l2.3,3,.7-2.7c.2-.8.4-1.5.6-2.2.5-1.6.9-3.2,1.2-4.8.2-.7.2-.7,1-.7,2.1,0,3.1,0,3.6,0,.2,0,.6,0,.6,0,0,0,4,0,4,0,2.5,0,3.7-1,4.3-3.3.7-2.8,1.4-5.7,2.2-8.5.7-2.6,1.4-5.3,2-8,.2-.9.2-.9,1.1-.9,5.1,0,10.2,0,15.3,0,9.4,0,18.1,0,26.5,0,1.3,0,1.6.4,2,1.2.3.6.6,1.1,1,1.8.2.3.5.7.8,1.2l1.9,1.3c0-1.4.9-4.5,1.3-5,.3-.4,1-.5,2.2-.5s.7,0,1.1,0c.4,0,.8,0,1.1,0h5.2c4,0,8,0,11.9,0,7.8,0,14.1,0,19.9-.1h.2c2.5,0,3.3.5,3.8,2.3.1.5.4.8.5,1.1,0,0,.1.2.2.2l.8,1.4,1.3-1c0,0,0,0,.1,0,.2-.1.7-.5.8-1.1.2-1.2.4-2.4.6-2.6.2-.2,1.5-.2,2.7-.2h17.4c6.6,0,14.5,0,22.3,0h.1c1.6,0,2.1.4,2.7,1.9,1.8,5,3.6,9.5,5.4,13.5,1,2.2,2.1,4.3,3.3,6.5.6,1,1.1,2.1,1.7,3.2l2,3.9,4.2-29c2.5,0,8.4,0,15.2,0,12.2,0,21.4,0,27.1-.1h.2c2.5,0,3,.6,3.2,2.4,0,.8.5,1.5,1.2,2.1l2,1.7.8-6.1c.5,0,.9,0,1.4,0h21.8c23.2,0,47.1,0,70.7-.1,1.3,0,1.6.2,1.7.3,0,0,.2.3.2,1.4,0,1.4.3,2.7,1.2,3.9l2.6,3.6v-9h96.1v6.3l3.2.3.8-6.6h95.8l1,6.8,2-2.5s0,0,.1-.1c.2-.2.5-.5.6-.9.6-1.8.9-2.9,1.3-3.2.4-.3,1.7-.3,3.6-.3h88.9c.7-.1,1.9-.1,2.1,0,.2.2.4,1.3.6,2.3,0,.2,0,.4.1.6l.4,1.8,1.5-.5h.1c.8-.3,1.1-.8,1.2-1.2.6-3,2.3-3.3,5.9-3.3h.4c11.1,0,22.2,0,33.3,0s21.7,0,32.6,0h20.9c1.2,0,2.5,0,2.8.2.3.2.7,1.4,1.1,2.8l.4,1.3,1.3-.4c.3,0,1-.2,1.3-1,.9-2.3,2.3-3.1,5.8-3.1h.1c11.7,0,24,0,37.6,0s35.8,0,50.9,0c1.5,0,1.9.2,2.3,1.6,2.6,8.6,5.4,17.1,7.5,23.6.3,1,.2,1.4-.4,2.2-2.5,2.9-5,5.9-7.4,8.9-2.9,3.4-5.8,7-8.8,10.5-1.5,1.8-1.8,3.4-1.2,5.6,3,9.7,5.9,19.4,8.9,29.2,3.3,10.9,6.7,22.1,10.1,33.2.6,1.9.3,2.8-1.1,4.2-6.1,6-12.3,12.1-18.3,18-5.2,5.2-10.4,10.4-15.7,15.5-.7.7-2,1.2-2.9,1.2-7.5,0-15.1,0-22.5,0-6.1,0-12.2,0-18.2,0-1.1,0-1.3,0-1.6-1.3-4.6-19-9.4-38.3-14-57l-2.8-11.4c0-.4-.2-.8-.4-1.3,0-.2-.2-.5-.3-.8l-.8-2.6-2.3,3.1c-.4.5-.8,1-1.1,1.5l-3.8,5.2c-4.6,6.3-9.3,12.9-13.9,19.3-.7.9-1.2,1.2-2.2,1.2h-.1c-1.5,0-3.2,0-5.3,0s-2.3,0-3.5,0c-1.1,0-2.3,0-3.4,0h-1l-.3,1c0,.1,0,.2,0,.3-.1.3-.3.8,0,1.4,1.3,3.2.2,5.7-2.1,8.8-7,9.6-13.9,19.6-20.6,29.2l-1.5,2.1c-.7,1-1.3,1.4-2.7,1.4-6.8,0-13.6,0-20.4,0h-18.6c-1.6,0-2.8,0-3.1-.2-.3-.2-.7-1.3-1.1-2.8l-.5-1.5-1.5.6c-.2,0-.9.3-1.2,1-.8,2.2-2.1,2.9-5.4,2.9h-.5c-5.1,0-10.8-.1-17.7-.1s-7,0-10.5,0c-3.5,0-7,0-10.5,0h-1.6l-.9-4.9-1.6.7h-.1c-.2.1-1,.3-1.2,1.2-.5,2.4-1.7,3.2-5,3.2h-.4Z"/>
      <path class="cls-5" d="M868.8,41.6"/>
      <path class="cls-5" d="M864.2,43"/>
      <path class="cls-5" d="M965.4,153.8l-37.5-.9-25.9-89.5-25,.5-5.4-20.4-.5-2.1c0-2.1,1.5-4.8,3.2-4.8,0,0,73.7-.2,88.7-.2,2.4,8,5.6,17.1,7.6,23.3-2.3,2.8-5.5,5.6-7.8,8.4h0c-2.8,3.5-5.8,7-8.7,10.4-2.3,2.7-1.7,4.8-.7,8.2,3,9.7,15.6,52.2,19,63.2,0,.1-7,3.9-7,3.9Z"/>
      <path class="cls-5" d="M834.2,151.1c2.1-.4,1.9-1.5,1.8-2.3l-7.6-42.4,50.6-.6.8-3.9-12.9-57.2s-4.6-7.7-4.2-7.6c-.1,0-21.4.6-21.4.6-10.9,0-21.7,0-32.6,0s-22.2,0-33.3,0h-.4c-1.3,0-2,0-2.3.1,0,0-1.5,1.3-1.6,1.5l21.9,112.6,41.4-.9Z"/>
      <path class="cls-5" d="M672.5,37.2c.4,0,90.2.3,90.2.3,0,.1,20.9,115,20.9,115h-100.5c0-.1-11.6-110-11.6-110,0,0,.9-4.9,1-5.2Z"/>
      <polygon class="cls-5" points="674.7 151.5 662.5 37.3 571.7 37.2 576.1 151.3 674.7 151.5"/>
      <polygon class="cls-5" points="564.9 123.7 565.4 151.4 467.9 152.7 472.4 37.5 562.4 37.7 562.9 61 513.7 61.5 512 123.9 564.9 123.7"/>
      <path class="cls-5" d="M464.1,42.3"/>
      <path class="cls-5" d="M261.3,38.3h17.3c6.5,0,14.2,0,21.9,0,1.8,5,3.5,9.3,5.3,13.3,1,2.3,3.1,6,4.3,8.3.6,1-2.6,17.2-2,18.3l9,.4,6.2-40.3c3,0,34.2-.3,39.9-.4.3,1.1-13,110.1-13.1,114.2l-44.6-.2,4.4-32.7-20.4-.3-5.7,31.7-1.3.6-43.6.7,20.7-108.3,1.6-5.3Z"/>
      <path class="cls-5" d="M226.6,151.7l-41.9.3s26-113.6,26.4-113.6h7.1c4,0,8,0,11.9,0,7.8,0,14.1-.2,19.8-.2l1.4,1.3c.2,0-22.1,112.3-22,112.3h-2.9Z"/>
      <path class="cls-5" d="M42.4,152.6s-3.4-1.3-3.4-1.3c12.8-39.7,24.8-77.2,36.2-112.8,4.9,0,10,0,15.6,0s16.8-.1,24.1-.2c-1.9,8.9-3.4,13.4-4,18.3l11.9.3c.3.4-5.8,21-5.4,21.4l20.6-.3s5.3-19.2,5.6-20.1c.9,0,12.7-.6,12.7-.6.6-2.8,3.2-10,3.9-12.8.5-2.1,1.1-4.1,1.6-6.2,4.5,0,9,0,13.4,0,9.2,0,17.6,0,25.7,0,.2.4.5.8.8,1.3.2.3-26.7,112.6-26.5,113.1H42.4Z"/>
      <path class="cls-5" d="M360,152.2l11.8-104.3,1.3-9.6h20.1c22.6,0,46.8.1,70,0,.2,1.5-5.3,112.9-4.4,114.2l-98.8-.3Z"/>
    </g>
    <g id="Layer_1" class="cls-8">
      <g>
        <path class="cls-2" d="M125.4,162.5c-2.3,8.7-4.4,16.5-6.4,24.3-.5,1.8-1.2,2.5-3.2,2.5-13.2-.1-26.5,0-39.7-.1-1.2,0-2.6-.6-3.5-1.4-12.5-11.4-24.9-22.9-37.3-34.4-1.3-1.2-1.6-2.1-1-3.8,12.2-37.7,24.4-75.4,36.4-113.1.7-2.2,1.6-3.1,4.1-3,13.1.1,26.2,0,39.2,0,1.7,0,2.7.5,3.7,1.9,6.2,8.6,12.5,17.1,18.7,25.6.4.5.8,1,1.4,1.8.7-2.5,1.3-4.7,1.8-7,.3-1.4.9-1.8,2.4-1.8,8.2,0,0,0,8.2,0s2.5-.4,2.9-2.2c1.3-5.5,2.9-10.9,4.2-16.4.4-1.5,1-2,2.5-2,13.9,0,27.8,0,41.7,0,1.7,0,2.6.5,3.3,2,.3.7.8,1.4,1.7,2.8-.3-5.7,3.2-4.8,6.3-4.8,12.3,0,24.7,0,37,0,2.8,0,4.7.5,5.4,3.3,0,.4.4.7.6,1,.2-.2.4-.3.5-.4q.7-4,4.8-4c13.3,0,26.5,0,39.7,0,2.4,0,3.4.8,4.1,2.9,1.6,4.5,3.4,9,5.3,13.5,1.4,3.1,3.1,6.1,4.9,9.6,1.3-8.8,2.5-17.2,3.8-25.9,1,0,30,0,43.5-.1,3,0,4.5.7,4.8,3.7,0,.4.2.8.7,1.2.2-1.5.4-2.9.6-4.7.9,0,1.7-.1,2.6-.1,30.8,0,61.7,0,92.5-.1,2.6,0,3.4.8,3.3,3.2,0,1,.2,2,.9,3v-6.1h98.9v6.4c.2,0,.4,0,.6,0,.2-2.1.5-4.2.7-6.5h98.2c.2,1.6.5,3.2.7,4.9.2-.2.4-.4.5-.6q1.4-4.5,6.3-4.5c29.5,0,59-.1,88.5-.1q3.8,0,4.5,3.6c0,.3.1.6.2.8.2,0,.4,0,.4-.1.9-4.3,4-4.4,7.7-4.4,28.8.1,57.7,0,86.5,0q4.4,0,5.6,4c.2,0,.4,0,.4-.1,1.3-3.4,3.8-4,7.2-4,29.5.1,59,0,88.5,0,2.1,0,3,.6,3.6,2.6,2.4,7.9,4.9,15.7,7.5,23.5.5,1.5.3,2.4-.7,3.6-5.4,6.4-10.8,12.9-16.2,19.4-1.1,1.3-1.4,2.5-.9,4.2,6.4,20.8,12.6,41.6,18.9,62.3.7,2.4.4,3.8-1.4,5.6-11.4,11.1-22.6,22.4-33.9,33.6-.9.9-2.5,1.6-3.8,1.7-13.6.1-27.2,0-40.7.1-1.9,0-2.5-.6-3-2.4-5.6-22.8-11.2-45.6-16.8-68.4-.1-.6-.3-1.1-.6-2-.7.9-1.3,1.6-1.8,2.4-5.9,8.2-11.8,16.3-17.7,24.5-.9,1.3-1.9,1.8-3.5,1.8-4.1-.1-8.1,0-12.1,0-.1.4-.2.6-.2.7,1.6,3.9.1,7-2.2,10.2-7.5,10.3-14.8,20.8-22,31.3-1,1.5-2.1,2-3.9,2-13,0-26,0-39,0q-4.3,0-5.5-4c-.1,0-.4,0-.4.2-1.2,3.5-3.8,3.9-7.2,3.9-12.9-.2-25.8,0-38.7,0h-2.8c-.3-1.6-.5-3-.8-4.4-.2,0-.4.1-.4.2-.8,3.7-3.3,4.3-6.8,4.3-13.1-.2-26.2,0-39.2,0h-2.8c-.2-1.7-.5-3.1-.7-4.6-.2.1-.4.1-.4.2q-1.9,4.4-6.6,4.4h-42.4c-.2-1.8-.4-3.4-.7-5.3-.6,1.9-.7,4.3-1.8,5,0,0-3.7.3-5.6.3-13,0-26,0-39,0h-3c-.1-2.2-.2-4.2-.3-6.2-.1,0-.3,0-.4,0-.2,2-.4,4-.6,6h-98c-.3-2.1-.5-4-.8-6,0,0-.2,0-.2,0-.1,2-.3,3.9-.4,6.1h-3.1c-29.7,0-59.3,0-89,0s-5,0-7.1-5.2c-.2,2.1-.4,3.5-.6,5.1-.9,0-1.7.1-2.5.1-14,0-28,0-42,0-1.8,0-2.6-.5-3.4-2.1-3.1-6.6-6.3-13.2-9.5-19.8-.3-.6-.7-1.3-1.3-2.4-1.2,8.5-2.4,16.3-3.6,24.3h-2.9c-12.7,0-25.3,0-38,0-3.3,0-6.6.4-7.6-3.9-.4.2-.6.3-.6.3q-1,3.6-4.9,3.6c-12.1,0-24.2,0-36.2,0-3.5,0-6.7.2-8.3-4.7-.5,2-.8,3.2-1.2,4.5-.8,0-1.6.1-2.4.1-13.6,0-27.2,0-40.7,0-1.7,0-2.8-.6-3.8-1.8-5.5-6.4-11.1-12.9-16.8-19.2-.8-.8-2.2-1.3-3.3-1.5-1.4-.3-2.8-.1-4.2,0-3.4.2-6.8.4-8.8-4.2ZM674.8,39.9c4,36.4,8,72.5,12.1,109h19c.5-1.5.8-2.5,1.1-3.5.2,0,.5,0,.7,0,.5,1,1,2.1,1.6,3.5h16.1c-1.6-12.1-3.2-23.7-4.8-35.6,4.6,0,8.9,0,13.1,0,1.7,0,2.3.7,2.5,2.3.2,1.8.5,3.6.7,5.1,12.9,1.3,25.4,2.7,38.4,4-4.9-28.6-9.8-56.7-14.7-84.8h-85.8ZM614.5,102.6c4.1,0,7.9,0,11.6,0,3.5,0,3.4,0,3.7,3.6.3,4.8.7,9.6,1.1,14.4,6.9,0,13.4,0,20,0,1.1,0,2.2.3,3.3.5,0,.4,0,.7,0,1.1-7.4,2.3-15.2.6-23,1.4.6,8.3,1.2,16.6,1.9,24.9,12.9,0,0,0,12.9,0,.3-1.3.6-2.3.9-3.4.2,0,.4,0,.7,0,.5,1.2,1,1.9,1.6,3.4h22.4c-1.9-19-3.8-37.2-5.7-55.9-3.3,0-6.4-.1-9.5,0-2.2,0-4-.1-3.9-2.8-4.5-.4-9.1.9-13.1-1.8,4.2-1.7,8.6-.7,13-1.2,0-1.3-.1-2.6-.3-3.8-.3-3.2-.3-3.2,3-3.2,3.1,0,6.2,0,9.5,0-1.4-13.6-2.7-26.7-4-39.8h-70.1c1.2,10.6,2.3,21,3.5,31.4.3,2.9,2.5,4.5,5.5,4.8,2.1.2,4.3.4,6.4,1.1,1,.3,1.8,1.5,2.7,2.2-.1.2-.3.4-.4.6-2.1-.3-4.1-.6-6.2-.8-2.1-.2-4.2.1-6.2-.4-1.5-.4-2.7-1.8-4.1-2.8-1-.7-2-2-3.1-2.1-3-.4-6-.5-9-.3-2.1,0-3.4,1-3.3,3.8.9,19.2,1.5,38.5,2.2,57.7.2,4.5.4,9,.6,13.5h3.8c.6-2,.6-4.1,1.7-5.5,2.8-3.4,3.7-7.2,3.5-11.4-.1-3.9-.6-7.8-.8-11.7-.3-4.5,1.8-6.6,6.4-6.5,7.1,0,14.3,0,21.6,0-.2-3.9-.4-7.3-.6-11ZM146.8,102.7c-3.9,15.5-7.7,31.7-11.5,47,2.6.4,4.9,0,7.2,0,9.6-.2,19.3.2,28.9,0,1.9,0,2.3-1.6,2.7-3.2,4.3-18.4,8.6-36.8,12.9-55.2.7-3.2,1.4-6.4,2.2-9.7l-77.3.6c2.1-7.4,4.1-14.9,6.2-22.2-8.1-.2-39.3,0-47.6,0-5.1,15.9-10.4,32.3-15.9,49.3,3.6,0,6.8.2,10,0,3.1-.2,4.7,1.5,3.9,4.5-.5,1.7-1.1,3.3-1.6,5-.6,2.3.5,4,2.8,4,5.3,0,10.6-.4,15.9-.5,1.5,0,1.9-.8,2.3-2,1.5-5.1,3.1-10.2,4.5-15.3.6-2.2,1.7-2.4,3.6-2.2,3.4.2,6.8,0,10.1,0,.5,0,.9,0,1.6.1-2.1,7.5-4.1,14.7-6.1,22.3,7.4,0,14.6-.1,21.7,0,2.5,0,3.2-.9,3.7-3.1,1.3-5.3,2.8-10.6,4.3-15.9,1.1-3.9.8-3.3,5.4-3.5,1.5.2,7.8.2,10.1,0ZM431.6,81.6h-24c0-1.2,0-2.1,0-3,.4-5.3.7-10.6,1.1-16,.3-3.9.3-3.9,4.2-3.9,14.7,0,29.3,0,44,0,.9,0,1.7-.1,2.7-.2.3-6.3.5-12.2.8-18.2h-85.5c-1.1,10-2.1,19.8-3.1,29.6,6.9.5,13.6-.6,20.2.7-.4.7-.8,1.2-1.3,1.3-6.3.6-12.7,1.2-19.4,1.8-1.7,16.4-3.5,33.3-5.4,50.8,4.3,0,8,.1,11.7,0,3.5-.1,5.6,1.5,5.6,5,0,3.9-.3,7.8-.3,11.7,0,2.4.2,4.8.4,7.5h44.4c0-3.8,0-7.1,0-10.3,0-4.4,2.1-6.4,6.5-6.4,2.2,0,4.3,0,6.5,0,3.2-.1,4.7-1.8,5-5.4h-41.9c.6-8.2,1.2-16.1,1.8-24.2h52.1c.3-7,.6-13.7.9-20.5h-23.4c-1.1,5.5,1.1,11.5-2.6,16.5-1.3-5.4-.5-11-.9-16.8ZM480.7,75.2c0-.4.2-.8.3-1.3,9.8,1.7,19.6,3.3,29.9,5.1,0-5.8,0-11.7,0-17.5,0-2.3.8-2.8,2.9-2.8,12.9,0,25.8,0,38.7,0,2.7,0,5.5,0,8,0,0-5.5-.1-10.8,0-16,0-2.3-.7-2.9-3-2.9-26.9.1-53.8.2-80.7.2-.6,0-1.3,0-2.1.2-.6,18.6-1.2,37-1.9,55.4,3,0,5.8-1.1,8.3.4,0,.4,0,.8.1,1.1-2.7.5-5.5,1.1-8.5,1.7-.6,16.3-1.1,32.9-1.7,50.2,4.8,0,9.4,0,13.9,0,1.8,0,3.8-.2,4.5-2.6.1-.5,1-.8,1.5-1.2,2.8-2,6.1-1.6,9.2-1.5,3.4,0,6.4,1.1,7.4,4.9h35.8c.8-5.7-.8-14.1.3-16.5.4,0,.7,0,1.1,0,.8,5.4,1.6,10.9,2.5,16.7h15.7v-22c-1.5,0-2.5,0-3.5,0-15.3,0-30.7,0-46,0q-3.9,0-3.8-3.9c.3-12.6.5-25.2.7-37.7,0-.8-.1-2.1-.6-2.4-1.6-1-3.3-2-5.1-2.4-5-1.1-10-1.7-15-2.8-3-.6-6-1.6-9-2.5ZM286.3,115.5c0,0,.1-.6.2-1.2,1.2-7.1,2.3-14.3,3.5-21.4.1-.7.8-1.8,1.2-1.8,4.5-.1,8.9,0,13.7,0-1.1,7.9-2.1,15.2-3.2,22.8,1.4,0,34.6,0,36.5.8,1.1,1.1,1.8,3,1.7,4.5-.2,3.5-1,6.9-1.5,10.4-.8,5.5-1.5,11-2.3,16.6-.3,2.3.7,3.3,2.8,3.2,3,0,5.9-.2,9-.3,3.3-28.7,6.6-56.9,9.9-85.3-12.1-.5-23.6-3.7-35.7-2.9-1,7.1-2.1,14.1-3.1,21h-14.4c1-7.1,1.9-13.9,2.8-20.8-6.3-.3-12.2-.6-18.1-.9-1.9-.1-3.8-.3-5.7-.7-.8-.1-1.5-.7-2.3-1.1,0-.3.1-.5.2-.8,4.6-1.3,9.2-.1,14.1,0,.9-5.5,1.7-11.2,2.6-16.9h-35.5c-4.6,24.4-9.1,48.7-13.7,73.2,12.4.6,24.6,1.2,37.1,1.9ZM845.9,81c-1,0-2,0-2.9,0-7.2,0-14.3,0-21.5,0-1.6,0-2.4-.5-2.7-2.1-.8-4.3-1.8-8.6-2.7-13-.5-2.3-.9-4.7-1.5-7.4l19.6-.2c-1.3-5.4-3-7.6-6.5-8-3.9-.5-6.2-2.6-7.2-6.3-.4-1.4-.7-2.7-1-4h-44.6c6.7,36.4,13.3,72.4,19.9,108.8l38.5-.2c-3.3-15.6-6.4-30.9-9.6-46.2h24.1c.4-2.4,1.1-4.4.9-6.2-.7-5-1.9-10-3-15.3ZM227.1,149.1c5.6-28.5,11.2-56.9,16.8-85.4-5.3-.3-10.6.6-15.4-1.5,0-.3,0-.7,0-1h15.9c1.4-7.2,2.7-13.8,4-20.6-1.1,0-1.9,0-2.7,0-9.8,0-19.7.1-29.5,0-2.6,0-3.5.7-4,3.2-6.4,29-12.9,58-19.3,87-1.3,6-2.6,12-4,18.3h14.9c.4-5.9,1.1-11.5,4.5-16.3.4,1.3.4,2.5.2,3.6-.3,2.1-.9,4.2-1.2,6.4-.2,1.6,0,3.3.2,4.9,0,.5,1,1.3,1.6,1.3,5.9,0,11.8,0,17.9,0ZM940.8,39.8h-65.4c1.6,6.1,3,11.9,4.6,17.8.1.5,1.1,1,1.7,1,20.6-.1,0,.1,20.6,0v-5.2c.2,0,.4,0,.6-.1,1.1,2.8,2.4,5.6,3.3,8.6,4.7,16.8,9.3,33.7,13.8,50.6.4,1.5,1,2.1,2.6,2.4,11,1.4,24.1.9,36.1,1.5-5.6-19.2-11.1-38.5-16.7-57.7,1.4-.3,2.2.2,3,0,0-.6,0-1.5,0-2-1.4-5.6-2.8-11.1-4.2-16.8ZM260.8,138.4c.4.1.8.2,1.3.4,0,.8,0,1.5-.2,2.3-.3,1.8-.6,3.6-.9,5.4-.3,1.6.2,2.6,2,2.6,5.2,0,10.5,0,15.7,0,2,0,2.6-1,2.9-2.8,1.1-7.2,2.3-14.5,3.5-21.7.9-5.5.6-6-5.1-6.4-10.3-.7-20.6-1.1-31.2-1.6-2,10.6-4,21.3-6.1,32.4h14.1c1.5-3.9,2.8-7.2,4.1-10.6ZM922.2,120.4c2.5,9.2,5,18.1,7.5,27.1.1.5.8,1.1,1.3,1.1,11.2.2,22.4.4,33.6.5,1.3,0,2.5-.4,4-.7-3-9.9-5.7-19-8.7-28.9l-37.7.9ZM190,78.1c2.9-12.7,5.8-25.1,8.8-37.6h-35.5c-1.5,5.8-3,11.5-4.4,17.2,3.8,0,7.3,0,10.9,0,3.9,0,5.7,2.4,5.2,6.2-.5,3.2-1,6.4-1.2,9.7-.2,2.8,1.2,4.5,4,4.6,4,.1,8,0,12.3,0ZM779.4,148.7c-1.1-6.3-2.2-12.3-3.1-18.3-.3-1.9-1.1-2.6-3-2.8-9.9-1-19.9-2.2-29.8-3.3-2-.2-4-.4-6.3-.6,1.2,8.5,2.4,16.7,3.6,25h38.5ZM615.3,116.4c-6.5,0-12.8,0-19.2,0-4.7,0-6.1,1.5-5.9,6.2.3,4.7.6,9.3.9,14,0,.9-.1,1.9-.6,2.6-1.9,3.1-3.9,6.1-6.1,9.5,32.1,0,0,0,32.9,0-.7-10.8-1.4-21.5-2.1-32.3ZM332.6,148.9c.6-4.4,1.2-8.2,1.7-12.1.8-5.2,1.6-10.4,2.2-15.6.4-2.9-.8-4.6-3.3-4.5-5.9.2-11.8.7-17.7,1.1-1.3,0-1.8.7-1.9,2.1-.7,5.7-1.6,11.4-2.4,17.1-.5,3.8-1,7.7-1.6,11.9h23ZM82.2,139.4c-6.3,0-12.2,0-18.1,0-5.1,0-6.5-1.9-4.9-6.7,1.8-5.4,3.6-10.9,5.3-16.4.8-2.7-.1-4.4-2.5-4.5-2.6-.2-5.3,0-8.2,0-3.9,12-7.8,24.3-12,37.4l36.2-.4c.6,0,1.6-.6,1.8-1.2.9-2.6,1.6-5.2,2.5-8.3ZM322.7,56.4c1.5.2,3,.2,4.3.5,6.5,1.5,13.3,1.6,19.7,3.7,3.4,1.1,7.4.2,11.4.2.8-6.7,1.6-13.5,2.4-20.5h-35.5c-.8,5.4-1.5,10.7-2.3,16.1ZM822.4,39.9c1,4.1,2.7,7.1,7.4,7.5,2.7.2,4.6,2.2,5.6,4.8.7,1.6,1.1,3.3,1.8,4.9.3.6,1,1.4,1.6,1.4l26.7-.2c-1.5-6.2-3-12.3-4.6-18.5h-38.6ZM111.4,40.7c-.4-.2-.5-.3-.6-.3-10.9,0-21.8,0-32.7,0-.6,0-1.6,1-1.8,1.7-1.5,4.4-2.9,8.8-4.4,13.3-.2.5-.1,1-.2,1.6h34.9c1.6-5.3,3.2-10.9,4.8-16.4ZM876.2,102.5c-1.6-6.7-3.2-13.8-4.9-20.3-.1-.5-1.3-1.1-2.1-1.1-20.2,0-17.7,0-20.2,0,.9,5.3,1.8,10.1,2.5,14.9.3,2,0,4.5,0,6.6,25-.2.8,0,24.7,0ZM140.8,78.2c8.4,0,16.5,0,24.5,0,2.8,0,4.7-1.8,5.2-4.5.5-2.5.8-5.1,1-7.7.4-3.8-.9-5.3-4.7-5.3-6.6,0-13.2.1-19.9.3-.6,0-1.6.4-1.7.9-1.5,5.3-3,10.7-4.5,16.4ZM448.8,126.9c0,.6,0,1-.1,1.3-.2,4.8-2.2,6.7-7,6.7-2,0-4,0-6,0-3.3.2-5,2-5,5.3,0,2.7,0,5.5,0,8.6l24.9-.3c.3-7.2.6-14.4.9-21.6h-7.7ZM590.5,69.6c-1-9.8-2-19.6-3-29.5h-12.8c.4,10.2.8,20.2,1.2,30.3,12.1,0,12.3.2,14.6-.8ZM967.3,58.4c-2-6.2-3.8-12-5.7-17.7-.1-.4-.9-1-1.4-1-5.6,0-11.1,0-16.7,0,1.6,5.6,3,11.1,4.6,16.5.3.9,1,2.1,1.8,2.3M365.7,127c-.8,7.2-1.5,14.4-2.3,21.6h16.8c0-5.5,0-10.9,0-16.2,0-3.6-1.5-5.2-5.1-5.4-3.1-.1-6.1,0-9.4,0ZM86.2,125.9c-5.7,0-10.9,0-16.1,0-4.1,0-6.6,2.1-7.6,6.2-.6,2.6.4,4.2,3,4.2,5.4.1,10.8,0,16.2,0,.6,0,1.5-.7,1.7-1.3,1-2.8,1.7-5.7,2.8-9.2Z"/>
        <path class="cls-2" d="M731,70.8c.1,1.3,0,2.3.3,3.1.3.7,1.2,1.2,1.8,1.8,0,0,.2,0,.2,0,1.9.2,4.4-.3,5.4.7,1.1,1.1.9,3.6,1.2,5.5.8,5.1,1.5,10.2,2.4,15.6-3.1,0-5.9,0-8.7,0-.5,0-1.1-.9-1.2-1.5-.4-1.8-.6-3.6-1-5.5h-12.9c.1,2.3.3,4.5.4,7-2.9,0-5.7,0-8.5,0-.5,0-1.2-.9-1.3-1.5-.9-6.6-1.7-13.2-2.6-20.2h7.5c-.2-1.8-.4-3.1-.6-4.8-4.3,0-8.4,0-12.6,0-2,0-2.8-.5-2.9-2.6-.3-3.8-.9-7.6-1.4-11.8,5.5,0,10.7,0,15.9,0,.5,0,1.2,1,1.3,1.7.6,3.5,1.1,7,1.6,10.8h12.7c-.5-4.2-.9-8.1-1.4-12.5,1.2,0,2.3,0,3.3,0,4.1,0,8.2,0,12.2,0,1.2,0,2.1.2,2.3,1.6.6,4.1,1.3,8.2,1.9,12.6h-15.5Z"/>
        <path class="cls-2" d="M620.3,81.8c-1.8,0-3.7.1-5.5,0-.7,0-1.7-1-1.8-1.6-.6-6.5-.9-12.9-1.4-19.4,0-1.3.3-2,1.8-2,3.7,0,7.3,0,11,0,.7,0,1.8,1,1.8,1.6.6,6.4,1,12.8,1.6,19.1.2,1.8-.5,2.4-2.2,2.3-1.7-.1-3.5,0-5.2,0Z"/>
      </g>
    </g>
  </g>
</svg>